<svg xmlns="http://www.w3.org/2000/svg" viewBox="0 0 47.5 47.5" id="J"><defs><clipPath id="a"><path d="M0 38h38V0H0v38Z" fill="#000000" class="color000000 svgShape"></path></clipPath></defs><g clip-path="url(#a)" transform="matrix(1.25 0 0 -1.25 0 47.5)" fill="#000000" class="color000000 svgShape"><path fill="#767fad" d="M37 5a4 4 0 0 0-4-4H5a4 4 0 0 0-4 4v28a4 4 0 0 0 4 4h28a4 4 0 0 0 4-4V5Z" class="color3b88c3 svgShape"></path><path fill="#ffbf66" d="M24.102 14.201c0-5.209-3.318-6.573-6.139-6.573-2.14 0-5.705.837-5.705 3.534 0 .838.713 1.892 1.736 1.892 1.24 0 2.325-1.148 3.721-1.148 1.736 0 1.736 1.613 1.736 2.606v13.332c0 1.55.993 2.418 2.325 2.418 1.334 0 2.326-.868 2.326-2.418V14.201Z" class="colorffffff svgShape"></path></g></svg>